<svg width="22" height="22" viewBox="0 0 22 22" fill="none" xmlns="http://www.w3.org/2000/svg">
<path d="M11 21C16.5228 21 21 16.5228 21 11C21 5.47715 16.5228 1 11 1C5.47715 1 1 5.47715 1 11C1 16.5228 5.47715 21 11 21Z" stroke="white" stroke-linecap="round" stroke-linejoin="round"/>
<path d="M7.61818 7.83408C7.52654 8.09458 7.66343 8.38004 7.92392 8.47167C8.18442 8.56331 8.46987 8.42642 8.56151 8.16593L7.61818 7.83408ZM13.9198 9.00001L13.4198 8.99926V9.00001H13.9198ZM8.08984 8.00001L8.56151 8.16593C8.75743 7.60898 9.14414 7.13935 9.65314 6.8402L9.3998 6.40914L9.14646 5.97807C8.43385 6.39687 7.89246 7.05436 7.61818 7.83408L8.08984 8.00001ZM9.3998 6.40914L9.65314 6.8402C10.1621 6.54106 10.7606 6.43171 11.3425 6.53152L11.427 6.03872L11.5115 5.54591C10.6969 5.40618 9.85906 5.55927 9.14646 5.97807L9.3998 6.40914ZM11.427 6.03872L11.3425 6.53152C11.9244 6.63133 12.4522 6.93386 12.8324 7.38553L13.2149 7.06353L13.5974 6.74153C13.0651 6.1092 12.3262 5.68565 11.5115 5.54591L11.427 6.03872ZM13.2149 7.06353L12.8324 7.38553C13.2126 7.8372 13.4207 8.40886 13.4198 8.99926L13.9198 9.00001L14.4198 9.00075C14.4211 8.17419 14.1297 7.37387 13.5974 6.74153L13.2149 7.06353ZM13.9198 9.00001H13.4198C13.4198 9.73457 12.8623 10.3541 12.1425 10.834C11.7978 11.0638 11.4496 11.2382 11.1855 11.3556C11.0542 11.414 10.9455 11.4574 10.8708 11.4859C10.8334 11.5001 10.8047 11.5105 10.786 11.5172C10.7767 11.5205 10.7699 11.5229 10.7658 11.5243C10.7637 11.525 10.7623 11.5255 10.7617 11.5257C10.7613 11.5258 10.7611 11.5259 10.7612 11.5259C10.7612 11.5259 10.7612 11.5258 10.7613 11.5258C10.7614 11.5258 10.7615 11.5258 10.7615 11.5257C10.7616 11.5257 10.7617 11.5257 10.9198 12C11.078 12.4743 11.0781 12.4743 11.0783 12.4742C11.0783 12.4742 11.0785 12.4742 11.0787 12.4741C11.0789 12.474 11.0793 12.4739 11.0796 12.4738C11.0804 12.4735 11.0813 12.4732 11.0824 12.4729C11.0846 12.4721 11.0875 12.4711 11.0911 12.4699C11.0984 12.4674 11.1084 12.4639 11.121 12.4594C11.1463 12.4504 11.182 12.4374 11.2267 12.4204C11.3161 12.3863 11.4417 12.3361 11.5917 12.2694C11.8901 12.1368 12.2919 11.9362 12.6972 11.666C13.4774 11.1459 14.4198 10.2654 14.4198 9.00001H13.9198Z" fill="white"/>
<path d="M11 16H11.01" stroke="white" stroke-linecap="round" stroke-linejoin="round"/>
<path d="M11 12V13" stroke="white" stroke-linecap="round" stroke-linejoin="round"/>
</svg>
